<svg version="1.1" id="Layer_1" xmlns="http://www.w3.org/2000/svg" xmlns:xlink="http://www.w3.org/1999/xlink" x="0px" y="0px"
	 width="100%" viewBox="0 0 512 512" enable-background="new 0 0 512 512" xml:space="preserve">
<path fill="#421E34" opacity="1.000000" stroke="none" 
	d="
M234.000000,513.000000 
	C156.018906,513.000000 78.537811,513.000000 1.028361,513.000000 
	C1.028361,342.393890 1.028361,171.787750 1.028361,1.090815 
	C171.564453,1.090815 342.128967,1.090815 512.846741,1.090815 
	C512.846741,171.666565 512.846741,342.333252 512.846741,513.000000 
	C420.121063,513.000000 327.310516,513.000000 234.000000,513.000000 
M172.078781,364.671478 
	C179.255432,359.913269 187.120071,355.926025 193.479004,350.251465 
	C212.129089,333.608612 218.441147,311.617981 218.478775,287.402771 
	C218.550461,241.271408 218.499649,195.139847 218.499695,149.008377 
	C218.499695,147.413605 218.499695,145.818832 218.499695,143.307724 
	C207.220886,154.514236 196.811813,165.019348 186.183090,175.297302 
	C183.674423,177.723175 182.855698,180.180756 182.858200,183.578735 
	C182.888687,225.045364 182.804276,266.512177 182.684845,307.978760 
	C182.641586,323.002014 179.941681,337.520874 172.384659,350.645172 
	C168.656021,357.120697 163.742188,362.913849 158.805908,369.794556 
	C163.409119,368.018433 167.389297,366.482697 172.078781,364.671478 
M302.821747,171.334137 
	C296.847046,175.567673 295.494507,181.265884 295.532349,188.513489 
	C295.836212,246.656082 295.702301,304.800964 295.702301,362.945129 
	C295.702301,364.840576 295.702301,366.736053 295.702301,369.735779 
	C307.083893,358.370270 317.633057,348.028992 327.889130,337.404755 
	C329.602264,335.630127 330.933960,332.629242 330.940643,330.190857 
	C331.106873,269.548096 331.072968,208.904800 331.058990,148.261597 
	C331.058685,146.886108 330.878479,145.510651 330.727448,143.353348 
	C321.175110,152.931519 312.249176,161.881592 302.821747,171.334137 
M441.770294,216.215317 
	C448.070221,184.606934 431.627747,148.829529 408.548950,144.007675 
	C408.548950,181.368271 408.548950,218.719864 408.548950,256.869171 
	C425.455170,247.847885 436.216736,234.709854 441.770294,216.215317 
M69.930382,311.598663 
	C69.898224,338.034698 85.471581,364.219269 104.795242,370.041779 
	C104.795242,332.551758 104.795242,295.101593 104.795242,256.978851 
	C83.555405,269.218140 71.688179,286.633911 69.930382,311.598663 
M72.941566,175.598633 
	C83.600410,165.042740 94.259247,154.486847 105.610596,143.245132 
	C92.794716,143.245132 81.268074,143.245132 69.685486,143.245132 
	C69.685486,154.965775 69.685486,166.424225 69.685486,178.564560 
	C70.959122,177.406906 71.678108,176.753387 72.941566,175.598633 
M414.238464,364.766296 
	C412.327393,366.463623 410.416290,368.160919 407.561340,370.696533 
	C420.860809,370.696533 432.394653,370.696533 443.883881,370.696533 
	C443.883881,359.014435 443.883881,347.637482 443.883881,334.578522 
	C433.522736,345.132385 424.132568,354.697235 414.238464,364.766296 
z"/>
<path fill="#F8F8F8" opacity="1.000000" stroke="none" 
	d="
M171.724121,364.809235 
	C167.389297,366.482697 163.409119,368.018433 158.805908,369.794556 
	C163.742188,362.913849 168.656021,357.120697 172.384659,350.645172 
	C179.941681,337.520874 182.641586,323.002014 182.684845,307.978760 
	C182.804276,266.512177 182.888687,225.045364 182.858200,183.578735 
	C182.855698,180.180756 183.674423,177.723175 186.183090,175.297302 
	C196.811813,165.019348 207.220886,154.514236 218.499695,143.307724 
	C218.499695,145.818832 218.499695,147.413605 218.499695,149.008377 
	C218.499649,195.139847 218.550461,241.271408 218.478775,287.402771 
	C218.441147,311.617981 212.129089,333.608612 193.479004,350.251465 
	C187.120071,355.926025 179.255432,359.913269 171.724121,364.809235 
z"/>
<path fill="#F9F9F9" opacity="1.000000" stroke="none" 
	d="
M303.072510,171.082901 
	C312.249176,161.881592 321.175110,152.931519 330.727448,143.353348 
	C330.878479,145.510651 331.058685,146.886108 331.058990,148.261597 
	C331.072968,208.904800 331.106873,269.548096 330.940643,330.190857 
	C330.933960,332.629242 329.602264,335.630127 327.889130,337.404755 
	C317.633057,348.028992 307.083893,358.370270 295.702301,369.735779 
	C295.702301,366.736053 295.702301,364.840576 295.702301,362.945129 
	C295.702301,304.800964 295.836212,246.656082 295.532349,188.513489 
	C295.494507,181.265884 296.847046,175.567673 303.072510,171.082901 
z"/>
<path fill="#F5F5F5" opacity="1.000000" stroke="none" 
	d="
M441.623291,216.595001 
	C436.216736,234.709854 425.455170,247.847885 408.548950,256.869171 
	C408.548950,218.719864 408.548950,181.368271 408.548950,144.007675 
	C431.627747,148.829529 448.070221,184.606934 441.623291,216.595001 
z"/>
<path fill="#F8F8F8" opacity="1.000000" stroke="none" 
	d="
M69.945312,311.120941 
	C71.688179,286.633911 83.555405,269.218140 104.795242,256.978851 
	C104.795242,295.101593 104.795242,332.551758 104.795242,370.041779 
	C85.471581,364.219269 69.898224,338.034698 69.945312,311.120941 
z"/>
<path fill="#F4F3F4" opacity="1.000000" stroke="none" 
	d="
M72.669327,175.849258 
	C71.678108,176.753387 70.959122,177.406906 69.685486,178.564560 
	C69.685486,166.424225 69.685486,154.965775 69.685486,143.245132 
	C81.268074,143.245132 92.794716,143.245132 105.610596,143.245132 
	C94.259247,154.486847 83.600410,165.042740 72.669327,175.849258 
z"/>
<path fill="#F9F9F9" opacity="1.000000" stroke="none" 
	d="
M414.490417,364.514191 
	C424.132568,354.697235 433.522736,345.132385 443.883881,334.578522 
	C443.883881,347.637482 443.883881,359.014435 443.883881,370.696533 
	C432.394653,370.696533 420.860809,370.696533 407.561340,370.696533 
	C410.416290,368.160919 412.327393,366.463623 414.490417,364.514191 
z"/>
</svg>